<svg width="1598" height="592" viewBox="0 0 1598 592" fill="none" xmlns="http://www.w3.org/2000/svg">
<g clip-path="url(#clip0_41_181)">
<path d="M463.336 268.937C454.881 304.457 449.808 333.212 441.352 360.274C439.661 367.04 429.515 373.806 422.751 373.806C404.15 373.806 397.386 382.263 392.313 397.486C373.712 453.303 350.038 507.429 300.999 546.332C235.05 598.766 89.6234 619.063 32.1292 512.503C13.5281 480.366 3.38209 439.772 1.69108 402.56C-3.38193 292.617 21.9831 189.44 86.2413 98.103C130.207 37.2116 192.775 3.38302 267.179 0.000158732C344.965 -3.3827 409.223 54.1259 419.369 135.314C427.824 204.663 439.661 201.28 360.184 201.28C355.111 201.28 351.729 201.28 346.656 201.28C299.308 201.28 299.308 201.28 284.089 157.303C273.943 126.857 238.432 118.4 213.067 143.772C194.466 160.686 179.247 184.366 169.101 206.354C138.663 270.629 121.752 336.594 133.589 409.326C138.663 434.697 147.118 456.686 174.174 463.452C201.23 468.526 223.213 454.994 240.123 436.389C246.887 429.623 251.96 421.166 255.342 411.017C270.561 382.263 268.87 380.572 238.432 375.497C231.668 373.806 228.286 363.657 223.213 356.892C221.522 355.2 224.904 351.817 226.595 350.126C233.359 324.754 233.359 289.234 248.578 275.703C265.488 262.172 299.308 270.629 326.364 270.629C370.33 268.937 414.296 268.937 463.336 268.937Z" fill="black"/>
<path d="M1016.29 580.16C1016.29 554.789 1016.29 534.492 1016.29 510.812C974.019 510.812 935.126 509.12 894.542 512.503C887.778 512.503 879.323 526.035 874.25 534.492C853.958 581.852 855.649 581.852 806.61 581.852C781.244 581.852 754.188 581.852 728.823 581.852C727.132 581.852 723.75 580.16 718.677 576.777C733.896 541.257 749.115 507.429 764.334 471.909C828.593 329.829 892.851 187.749 955.418 45.6688C965.564 21.9888 977.401 11.8403 1004.46 13.5317C1045.04 15.2231 1087.32 15.2231 1127.9 13.5317C1149.88 13.5317 1156.65 21.9888 1156.65 42.286C1154.96 214.812 1154.96 387.337 1153.27 559.863C1153.27 568.32 1143.12 581.852 1138.05 581.852C1099.15 580.16 1058.57 580.16 1016.29 580.16ZM1031.51 167.452C1029.82 167.452 1026.44 165.76 1024.75 165.76C996.002 238.492 965.564 311.223 935.126 387.337C955.418 389.029 968.946 389.029 984.165 389.029C1024.75 389.029 1026.44 387.337 1028.13 346.743C1029.82 309.532 1031.51 272.32 1033.2 233.417C1031.51 213.12 1031.51 191.132 1031.51 167.452Z" fill="black"/>
<path d="M1261.49 471.909C1273.33 478.675 1285.16 487.132 1297 492.206C1313.91 498.972 1318.98 512.503 1313.91 529.417C1297 590.309 1310.53 578.469 1249.65 580.16C1227.67 580.16 1204 580.16 1182.01 578.469C1180.32 578.469 1176.94 575.086 1171.87 571.703C1185.39 514.195 1198.92 454.995 1212.45 395.795C1239.51 277.395 1266.56 158.995 1293.62 40.5946C1298.69 16.9146 1308.84 6.76604 1332.51 8.45747C1371.41 11.8403 1411.99 10.1489 1450.88 15.2232C1548.96 28.7546 1601.38 91.3375 1596.31 191.132C1592.93 257.097 1576.02 317.989 1532.05 370.423C1486.39 424.549 1428.9 453.303 1361.26 460.069C1335.89 461.76 1310.53 461.76 1285.16 461.76C1276.71 461.76 1268.25 463.452 1259.8 465.143C1261.49 466.835 1261.49 470.217 1261.49 471.909ZM1337.59 131.932C1337.59 133.623 1335.89 137.006 1335.89 138.697C1339.28 142.08 1344.35 145.463 1347.73 147.155C1393.39 174.217 1393.39 174.217 1381.55 228.343C1373.1 263.863 1366.33 301.075 1357.88 338.286C1386.62 343.36 1406.92 333.212 1423.83 314.606C1459.34 274.012 1467.79 223.269 1462.72 170.835C1461.03 152.229 1450.88 131.932 1428.9 131.932C1398.46 130.24 1368.02 131.932 1337.59 131.932Z" fill="black"/>
<path d="M476.864 411.017C485.319 411.017 493.774 411.017 500.538 411.017C524.212 409.326 542.813 411.017 539.431 444.846C537.74 463.452 552.959 476.983 573.251 475.292C591.852 473.6 601.998 461.76 605.38 441.463C612.144 395.794 578.324 370.423 554.65 339.977C532.667 312.914 507.302 289.234 490.392 260.48C429.516 155.612 488.701 28.7545 608.762 6.7659C669.638 -5.0741 725.441 0.000183655 771.099 45.6688C803.228 76.1145 811.683 118.4 808.301 164.069C808.301 169.143 796.464 179.292 788.009 179.292C759.262 180.983 730.514 179.292 701.767 179.292C688.239 179.292 681.475 172.526 679.784 158.994C676.402 126.857 659.492 113.326 635.818 120.092C608.762 126.857 598.616 147.154 608.762 177.6C622.29 219.886 656.11 246.949 684.857 277.394C720.368 312.914 742.352 355.2 742.352 407.634C744.043 480.366 722.059 542.949 651.037 573.394C583.397 603.84 514.066 603.84 453.19 556.48C412.605 524.343 407.532 476.983 407.532 429.623C407.532 424.549 419.369 416.092 427.825 414.4C443.044 409.326 459.954 411.017 476.864 411.017Z" fill="black"/>
</g>
<defs>
<clipPath id="clip0_41_181">
<rect width="1598" height="592" fill="white"/>
</clipPath>
</defs>
</svg>
